<svg width="400" height="400" viewBox="0 0 400 400" fill="none" xmlns="http://www.w3.org/2000/svg">
<path d="M262.491 134.272H136.922C133.624 134.272 130.951 136.952 130.951 140.243C130.951 143.533 133.624 146.214 136.922 146.214H262.491C270.864 146.214 277.686 153.029 277.686 161.424V238.583C277.686 246.964 270.864 253.779 262.491 253.779H137.517C129.144 253.779 122.322 246.964 122.322 238.583V160.829C122.322 157.524 119.641 154.851 116.335 154.851C113.045 154.851 110.372 157.524 110.372 160.829V238.583C110.372 253.56 122.547 265.729 137.517 265.729H262.491C277.46 265.729 289.636 253.56 289.636 238.583V161.424C289.636 146.44 277.46 134.272 262.491 134.272ZM242.423 219.103C238.794 219.103 235.857 216.159 235.857 212.552C235.857 209.239 233.177 206.566 229.879 206.566C226.581 206.566 223.907 209.239 223.907 212.552C223.907 220.647 229.178 227.484 236.445 229.984V233.365C236.445 236.663 239.125 239.351 242.423 239.351C245.729 239.351 248.395 236.663 248.395 233.365V229.984C255.669 227.484 260.932 220.647 260.932 212.552C260.932 202.327 252.634 194.021 242.423 194.021C238.794 194.021 235.857 191.077 235.857 187.463C235.857 183.841 238.794 180.897 242.423 180.897C246.038 180.897 248.982 183.841 248.982 187.463C248.982 190.761 251.655 193.441 254.961 193.441C258.259 193.441 260.932 190.761 260.932 187.463C260.932 179.353 255.669 172.531 248.395 170.024V166.628C248.395 163.329 245.729 160.649 242.423 160.649C239.125 160.649 236.445 163.329 236.445 166.628V170.024C229.178 172.531 223.907 179.353 223.907 187.463C223.907 197.673 232.213 205.971 242.423 205.971C246.038 205.971 248.982 208.915 248.982 212.552C248.982 216.159 246.038 219.103 242.423 219.103ZM140.243 235.857H200C203.298 235.857 205.971 233.169 205.971 229.879C205.971 226.588 203.298 223.907 200 223.907H140.243C136.945 223.907 134.272 226.588 134.272 229.879C134.272 233.169 136.945 235.857 140.243 235.857ZM140.243 176.1H200C203.298 176.1 205.971 173.419 205.971 170.129C205.971 166.823 203.298 164.15 200 164.15H140.243C136.945 164.15 134.272 166.823 134.272 170.129C134.272 173.419 136.945 176.1 140.243 176.1ZM140.243 205.971H200C203.298 205.971 205.971 203.298 205.971 199.992C205.971 196.694 203.298 194.021 200 194.021H140.243C136.945 194.021 134.272 196.694 134.272 199.992C134.272 203.298 136.945 205.971 140.243 205.971Z" fill="white"/>
</svg>
