<svg width="400" height="400" viewBox="0 0 400 400" fill="none" xmlns="http://www.w3.org/2000/svg">
<path d="M240.629 158.292H159.994C157.876 158.292 156.16 160.013 156.16 162.126C156.16 164.24 157.876 165.961 159.994 165.961H240.629C246.006 165.961 250.387 170.337 250.387 175.728V225.276C250.387 230.658 246.006 235.034 240.629 235.034H160.376C154.999 235.034 150.618 230.658 150.618 225.276V175.346C150.618 173.224 148.897 171.507 146.774 171.507C144.661 171.507 142.945 173.224 142.945 175.346V225.276C142.945 234.894 150.763 242.708 160.376 242.708H240.629C250.242 242.708 258.06 234.894 258.06 225.276V175.728C258.06 166.106 250.242 158.292 240.629 158.292ZM227.743 212.767C225.412 212.767 223.526 210.877 223.526 208.561C223.526 206.433 221.805 204.716 219.687 204.716C217.569 204.716 215.852 206.433 215.852 208.561C215.852 213.759 219.237 218.149 223.903 219.754V221.926C223.903 224.043 225.625 225.77 227.743 225.77C229.865 225.77 231.577 224.043 231.577 221.926V219.754C236.248 218.149 239.628 213.759 239.628 208.561C239.628 201.994 234.299 196.661 227.743 196.661C225.412 196.661 223.526 194.77 223.526 192.449C223.526 190.123 225.412 188.233 227.743 188.233C230.063 188.233 231.954 190.123 231.954 192.449C231.954 194.567 233.671 196.288 235.793 196.288C237.911 196.288 239.628 194.567 239.628 192.449C239.628 187.241 236.248 182.861 231.577 181.25V179.07C231.577 176.952 229.865 175.23 227.743 175.23C225.625 175.23 223.903 176.952 223.903 179.07V181.25C219.237 182.861 215.852 187.241 215.852 192.449C215.852 199.006 221.186 204.334 227.743 204.334C230.063 204.334 231.954 206.225 231.954 208.561C231.954 210.877 230.063 212.767 227.743 212.767ZM162.126 223.526H200.5C202.618 223.526 204.334 221.8 204.334 219.687C204.334 217.574 202.618 215.852 200.5 215.852H162.126C160.009 215.852 158.292 217.574 158.292 219.687C158.292 221.8 160.009 223.526 162.126 223.526ZM162.126 185.153H200.5C202.618 185.153 204.334 183.431 204.334 181.318C204.334 179.195 202.618 177.479 200.5 177.479H162.126C160.009 177.479 158.292 179.195 158.292 181.318C158.292 183.431 160.009 185.153 162.126 185.153ZM162.126 204.334H200.5C202.618 204.334 204.334 202.618 204.334 200.495C204.334 198.377 202.618 196.661 200.5 196.661H162.126C160.009 196.661 158.292 198.377 158.292 200.495C158.292 202.618 160.009 204.334 162.126 204.334Z" fill="white"/>
</svg>
