<svg width="247" height="247" viewBox="0 0 247 247" fill="none" xmlns="http://www.w3.org/2000/svg">
<path d="M41.098 188.547H37.9872C37.9304 188.144 37.8144 187.787 37.6392 187.474C37.464 187.157 37.2391 186.887 36.9645 186.665C36.6899 186.442 36.3726 186.272 36.0128 186.153C35.6577 186.035 35.2718 185.976 34.8551 185.976C34.1023 185.976 33.4465 186.163 32.8878 186.537C32.3291 186.906 31.8958 187.446 31.5881 188.156C31.2803 188.862 31.1264 189.719 31.1264 190.727C31.1264 191.764 31.2803 192.635 31.5881 193.341C31.9006 194.046 32.3362 194.579 32.8949 194.939C33.4536 195.299 34.0999 195.479 34.8338 195.479C35.2457 195.479 35.6269 195.424 35.9773 195.315C36.3324 195.206 36.6473 195.048 36.9219 194.839C37.1965 194.626 37.4238 194.368 37.6037 194.065C37.7884 193.762 37.9162 193.417 37.9872 193.028L41.098 193.043C41.0175 193.71 40.8163 194.354 40.4943 194.974C40.1771 195.59 39.7486 196.142 39.2088 196.629C38.6738 197.112 38.0346 197.496 37.2912 197.78C36.5526 198.059 35.7169 198.199 34.7841 198.199C33.4867 198.199 32.3267 197.905 31.304 197.318C30.286 196.731 29.4811 195.881 28.8892 194.768C28.3021 193.656 28.0085 192.309 28.0085 190.727C28.0085 189.141 28.3068 187.792 28.9034 186.679C29.5 185.566 30.3097 184.719 31.3324 184.136C32.3551 183.549 33.5057 183.256 34.7841 183.256C35.6269 183.256 36.4081 183.374 37.1278 183.611C37.8523 183.848 38.4938 184.193 39.0526 184.648C39.6113 185.098 40.0658 185.649 40.4162 186.303C40.7713 186.956 40.9986 187.704 41.098 188.547ZM48.1754 198.213C47.0722 198.213 46.1181 197.979 45.3132 197.51C44.513 197.036 43.8951 196.378 43.4595 195.536C43.0239 194.688 42.8061 193.705 42.8061 192.588C42.8061 191.461 43.0239 190.476 43.4595 189.634C43.8951 188.786 44.513 188.128 45.3132 187.659C46.1181 187.186 47.0722 186.949 48.1754 186.949C49.2786 186.949 50.2304 187.186 51.0305 187.659C51.8355 188.128 52.4557 188.786 52.8913 189.634C53.3269 190.476 53.5447 191.461 53.5447 192.588C53.5447 193.705 53.3269 194.688 52.8913 195.536C52.4557 196.378 51.8355 197.036 51.0305 197.51C50.2304 197.979 49.2786 198.213 48.1754 198.213ZM48.1896 195.869C48.6915 195.869 49.1106 195.727 49.4467 195.443C49.7829 195.154 50.0362 194.761 50.2067 194.264C50.3819 193.767 50.4695 193.201 50.4695 192.567C50.4695 191.932 50.3819 191.366 50.2067 190.869C50.0362 190.372 49.7829 189.979 49.4467 189.69C49.1106 189.402 48.6915 189.257 48.1896 189.257C47.683 189.257 47.2569 189.402 46.9112 189.69C46.5703 189.979 46.3123 190.372 46.1371 190.869C45.9666 191.366 45.8814 191.932 45.8814 192.567C45.8814 193.201 45.9666 193.767 46.1371 194.264C46.3123 194.761 46.5703 195.154 46.9112 195.443C47.2569 195.727 47.683 195.869 48.1896 195.869ZM58.5376 191.693V198H55.5121V187.091H58.3956V189.016H58.5234C58.7649 188.381 59.1697 187.879 59.7379 187.51C60.3061 187.136 60.995 186.949 61.8047 186.949C62.5623 186.949 63.2228 187.115 63.7862 187.446C64.3497 187.777 64.7876 188.251 65.1001 188.866C65.4126 189.477 65.5689 190.206 65.5689 191.054V198H62.5433V191.594C62.5481 190.926 62.3776 190.405 62.032 190.031C61.6863 189.652 61.2105 189.463 60.6044 189.463C60.1972 189.463 59.8374 189.551 59.5249 189.726C59.2171 189.901 58.9756 190.157 58.8004 190.493C58.63 190.824 58.5424 191.224 58.5376 191.693ZM73.756 187.091V189.364H67.1864V187.091H73.756ZM68.6779 184.477H71.7035V194.648C71.7035 194.927 71.7461 195.145 71.8313 195.301C71.9165 195.453 72.0349 195.559 72.1864 195.621C72.3427 195.682 72.5226 195.713 72.7262 195.713C72.8683 195.713 73.0103 195.701 73.1523 195.678C73.2944 195.649 73.4033 195.628 73.479 195.614L73.9549 197.865C73.8034 197.912 73.5903 197.967 73.3157 198.028C73.0411 198.095 72.7073 198.135 72.3143 198.149C71.5851 198.178 70.9459 198.08 70.3967 197.858C69.8522 197.635 69.4284 197.29 69.1254 196.821C68.8223 196.352 68.6732 195.76 68.6779 195.045V184.477ZM75.7269 198V187.091H78.6602V188.994H78.7738C78.9727 188.317 79.3065 187.806 79.7752 187.46C80.244 187.11 80.7837 186.935 81.3945 186.935C81.546 186.935 81.7094 186.944 81.8846 186.963C82.0598 186.982 82.2137 187.008 82.3462 187.041V189.726C82.2042 189.683 82.0077 189.645 81.7567 189.612C81.5058 189.579 81.2762 189.562 81.0678 189.562C80.6228 189.562 80.225 189.66 79.8746 189.854C79.529 190.043 79.2544 190.308 79.0508 190.649C78.8519 190.99 78.7525 191.383 78.7525 191.828V198H75.7269ZM88.3317 198.213C87.2285 198.213 86.2744 197.979 85.4695 197.51C84.6693 197.036 84.0514 196.378 83.6158 195.536C83.1802 194.688 82.9624 193.705 82.9624 192.588C82.9624 191.461 83.1802 190.476 83.6158 189.634C84.0514 188.786 84.6693 188.128 85.4695 187.659C86.2744 187.186 87.2285 186.949 88.3317 186.949C89.4349 186.949 90.3866 187.186 91.1868 187.659C91.9917 188.128 92.612 188.786 93.0476 189.634C93.4832 190.476 93.701 191.461 93.701 192.588C93.701 193.705 93.4832 194.688 93.0476 195.536C92.612 196.378 91.9917 197.036 91.1868 197.51C90.3866 197.979 89.4349 198.213 88.3317 198.213ZM88.3459 195.869C88.8478 195.869 89.2668 195.727 89.603 195.443C89.9392 195.154 90.1925 194.761 90.3629 194.264C90.5381 193.767 90.6257 193.201 90.6257 192.567C90.6257 191.932 90.5381 191.366 90.3629 190.869C90.1925 190.372 89.9392 189.979 89.603 189.69C89.2668 189.402 88.8478 189.257 88.3459 189.257C87.8393 189.257 87.4131 189.402 87.0675 189.69C86.7266 189.979 86.4685 190.372 86.2933 190.869C86.1229 191.366 86.0376 191.932 86.0376 192.567C86.0376 193.201 86.1229 193.767 86.2933 194.264C86.4685 194.761 86.7266 195.154 87.0675 195.443C87.4131 195.727 87.8393 195.869 88.3459 195.869ZM98.6939 183.455V198H95.6683V183.455H98.6939ZM106.089 198.213C104.967 198.213 104.001 197.986 103.191 197.531C102.386 197.072 101.766 196.423 101.331 195.585C100.895 194.742 100.677 193.746 100.677 192.595C100.677 191.473 100.895 190.488 101.331 189.641C101.766 188.793 102.379 188.133 103.17 187.659C103.966 187.186 104.898 186.949 105.968 186.949C106.688 186.949 107.358 187.065 107.978 187.297C108.603 187.524 109.148 187.867 109.612 188.327C110.081 188.786 110.445 189.364 110.706 190.06C110.966 190.751 111.096 191.561 111.096 192.489V193.32H101.885V191.445H108.248C108.248 191.009 108.154 190.623 107.964 190.287C107.775 189.951 107.512 189.688 107.176 189.499C106.844 189.304 106.458 189.207 106.018 189.207C105.559 189.207 105.152 189.314 104.797 189.527C104.446 189.735 104.172 190.017 103.973 190.372C103.774 190.723 103.672 191.113 103.667 191.544V193.327C103.667 193.866 103.767 194.333 103.966 194.726C104.169 195.119 104.456 195.422 104.825 195.635C105.194 195.848 105.632 195.955 106.139 195.955C106.475 195.955 106.783 195.907 107.062 195.812C107.342 195.718 107.581 195.576 107.779 195.386C107.978 195.197 108.13 194.965 108.234 194.69L111.032 194.875C110.89 195.547 110.599 196.134 110.159 196.636C109.723 197.134 109.16 197.522 108.468 197.801C107.782 198.076 106.989 198.213 106.089 198.213ZM117.756 198V183.455H127.387V185.99H120.832V189.456H126.748V191.991H120.832V198H117.756ZM129.399 198V187.091H132.424V198H129.399ZM130.919 185.685C130.469 185.685 130.083 185.536 129.761 185.237C129.444 184.934 129.285 184.572 129.285 184.151C129.285 183.734 129.444 183.376 129.761 183.078C130.083 182.775 130.469 182.624 130.919 182.624C131.368 182.624 131.752 182.775 132.069 183.078C132.391 183.376 132.552 183.734 132.552 184.151C132.552 184.572 132.391 184.934 132.069 185.237C131.752 185.536 131.368 185.685 130.919 185.685ZM137.874 191.693V198H134.848V187.091H137.732V189.016H137.859C138.101 188.381 138.506 187.879 139.074 187.51C139.642 187.136 140.331 186.949 141.141 186.949C141.898 186.949 142.559 187.115 143.122 187.446C143.686 187.777 144.124 188.251 144.436 188.866C144.749 189.477 144.905 190.206 144.905 191.054V198H141.879V191.594C141.884 190.926 141.714 190.405 141.368 190.031C141.022 189.652 140.546 189.463 139.94 189.463C139.533 189.463 139.173 189.551 138.861 189.726C138.553 189.901 138.312 190.157 138.136 190.493C137.966 190.824 137.878 191.224 137.874 191.693ZM150.4 198.206C149.704 198.206 149.084 198.085 148.539 197.844C147.995 197.598 147.564 197.235 147.247 196.757C146.934 196.274 146.778 195.673 146.778 194.953C146.778 194.347 146.889 193.838 147.112 193.426C147.334 193.014 147.637 192.683 148.021 192.432C148.404 192.181 148.84 191.991 149.328 191.864C149.82 191.736 150.336 191.646 150.876 191.594C151.511 191.527 152.022 191.466 152.41 191.409C152.798 191.348 153.08 191.258 153.255 191.139C153.431 191.021 153.518 190.846 153.518 190.614V190.571C153.518 190.121 153.376 189.773 153.092 189.527C152.813 189.281 152.415 189.158 151.899 189.158C151.354 189.158 150.921 189.278 150.599 189.52C150.277 189.757 150.064 190.055 149.96 190.415L147.162 190.188C147.304 189.525 147.583 188.952 148 188.469C148.416 187.981 148.954 187.607 149.612 187.347C150.275 187.081 151.042 186.949 151.913 186.949C152.519 186.949 153.099 187.02 153.653 187.162C154.212 187.304 154.707 187.524 155.137 187.822C155.573 188.121 155.916 188.504 156.167 188.973C156.418 189.437 156.544 189.993 156.544 190.642V198H153.674V196.487H153.589C153.414 196.828 153.18 197.129 152.886 197.389C152.592 197.645 152.24 197.846 151.828 197.993C151.416 198.135 150.94 198.206 150.4 198.206ZM151.267 196.118C151.712 196.118 152.105 196.03 152.446 195.855C152.787 195.675 153.054 195.434 153.248 195.131C153.442 194.828 153.539 194.484 153.539 194.101V192.943C153.445 193.005 153.315 193.062 153.149 193.114C152.988 193.161 152.806 193.206 152.602 193.249C152.398 193.286 152.195 193.322 151.991 193.355C151.788 193.384 151.603 193.41 151.437 193.433C151.082 193.485 150.772 193.568 150.507 193.682C150.242 193.795 150.036 193.949 149.889 194.143C149.742 194.333 149.669 194.57 149.669 194.854C149.669 195.266 149.818 195.58 150.116 195.798C150.419 196.011 150.803 196.118 151.267 196.118ZM161.917 191.693V198H158.891V187.091H161.775V189.016H161.902C162.144 188.381 162.549 187.879 163.117 187.51C163.685 187.136 164.374 186.949 165.184 186.949C165.941 186.949 166.602 187.115 167.165 187.446C167.729 187.777 168.167 188.251 168.479 188.866C168.792 189.477 168.948 190.206 168.948 191.054V198H165.922V191.594C165.927 190.926 165.757 190.405 165.411 190.031C165.065 189.652 164.589 189.463 163.983 189.463C163.576 189.463 163.216 189.551 162.904 189.726C162.596 189.901 162.355 190.157 162.179 190.493C162.009 190.824 161.921 191.224 161.917 191.693ZM176.261 198.213C175.144 198.213 174.183 197.976 173.378 197.503C172.578 197.025 171.962 196.362 171.531 195.514C171.105 194.667 170.892 193.691 170.892 192.588C170.892 191.471 171.107 190.491 171.538 189.648C171.974 188.8 172.592 188.14 173.392 187.666C174.192 187.188 175.144 186.949 176.247 186.949C177.199 186.949 178.032 187.122 178.747 187.467C179.462 187.813 180.028 188.298 180.445 188.923C180.861 189.548 181.091 190.282 181.134 191.125H178.278C178.198 190.58 177.985 190.143 177.639 189.811C177.298 189.475 176.851 189.307 176.297 189.307C175.828 189.307 175.419 189.435 175.068 189.69C174.723 189.941 174.453 190.308 174.259 190.791C174.064 191.274 173.967 191.859 173.967 192.545C173.967 193.241 174.062 193.833 174.251 194.321C174.446 194.809 174.718 195.18 175.068 195.436C175.419 195.692 175.828 195.82 176.297 195.82C176.643 195.82 176.953 195.749 177.227 195.607C177.507 195.464 177.736 195.259 177.916 194.989C178.101 194.714 178.222 194.385 178.278 194.001H181.134C181.086 194.835 180.859 195.569 180.452 196.203C180.049 196.833 179.493 197.325 178.783 197.68C178.072 198.036 177.232 198.213 176.261 198.213ZM188.042 198.213C186.92 198.213 185.954 197.986 185.145 197.531C184.34 197.072 183.719 196.423 183.284 195.585C182.848 194.742 182.63 193.746 182.63 192.595C182.63 191.473 182.848 190.488 183.284 189.641C183.719 188.793 184.333 188.133 185.123 187.659C185.919 187.186 186.851 186.949 187.922 186.949C188.641 186.949 189.311 187.065 189.931 187.297C190.556 187.524 191.101 187.867 191.565 188.327C192.034 188.786 192.398 189.364 192.659 190.06C192.919 190.751 193.049 191.561 193.049 192.489V193.32H183.838V191.445H190.201C190.201 191.009 190.107 190.623 189.917 190.287C189.728 189.951 189.465 189.688 189.129 189.499C188.797 189.304 188.412 189.207 187.971 189.207C187.512 189.207 187.105 189.314 186.75 189.527C186.399 189.735 186.125 190.017 185.926 190.372C185.727 190.723 185.625 191.113 185.62 191.544V193.327C185.62 193.866 185.72 194.333 185.919 194.726C186.122 195.119 186.409 195.422 186.778 195.635C187.147 195.848 187.585 195.955 188.092 195.955C188.428 195.955 188.736 195.907 189.015 195.812C189.295 195.718 189.534 195.576 189.733 195.386C189.931 195.197 190.083 194.965 190.187 194.69L192.985 194.875C192.843 195.547 192.552 196.134 192.112 196.636C191.676 197.134 191.113 197.522 190.422 197.801C189.735 198.076 188.942 198.213 188.042 198.213ZM195.024 198V187.091H198.049V198H195.024ZM196.544 185.685C196.094 185.685 195.708 185.536 195.386 185.237C195.069 184.934 194.91 184.572 194.91 184.151C194.91 183.734 195.069 183.376 195.386 183.078C195.708 182.775 196.094 182.624 196.544 182.624C196.993 182.624 197.377 182.775 197.694 183.078C198.016 183.376 198.177 183.734 198.177 184.151C198.177 184.572 198.016 184.934 197.694 185.237C197.377 185.536 196.993 185.685 196.544 185.685ZM200.473 198V187.091H203.406V188.994H203.52C203.719 188.317 204.053 187.806 204.521 187.46C204.99 187.11 205.53 186.935 206.141 186.935C206.292 186.935 206.455 186.944 206.631 186.963C206.806 186.982 206.96 187.008 207.092 187.041V189.726C206.95 189.683 206.754 189.645 206.503 189.612C206.252 189.579 206.022 189.562 205.814 189.562C205.369 189.562 204.971 189.66 204.621 189.854C204.275 190.043 204 190.308 203.797 190.649C203.598 190.99 203.499 191.383 203.499 191.828V198H200.473ZM213.078 198.213C211.975 198.213 211.02 197.979 210.216 197.51C209.415 197.036 208.797 196.378 208.362 195.536C207.926 194.688 207.708 193.705 207.708 192.588C207.708 191.461 207.926 190.476 208.362 189.634C208.797 188.786 209.415 188.128 210.216 187.659C211.02 187.186 211.975 186.949 213.078 186.949C214.181 186.949 215.133 187.186 215.933 187.659C216.738 188.128 217.358 188.786 217.794 189.634C218.229 190.476 218.447 191.461 218.447 192.588C218.447 193.705 218.229 194.688 217.794 195.536C217.358 196.378 216.738 197.036 215.933 197.51C215.133 197.979 214.181 198.213 213.078 198.213ZM213.092 195.869C213.594 195.869 214.013 195.727 214.349 195.443C214.685 195.154 214.939 194.761 215.109 194.264C215.284 193.767 215.372 193.201 215.372 192.567C215.372 191.932 215.284 191.366 215.109 190.869C214.939 190.372 214.685 189.979 214.349 189.69C214.013 189.402 213.594 189.257 213.092 189.257C212.585 189.257 212.159 189.402 211.814 189.69C211.473 189.979 211.215 190.372 211.039 190.869C210.869 191.366 210.784 191.932 210.784 192.567C210.784 193.201 210.869 193.767 211.039 194.264C211.215 194.761 211.473 195.154 211.814 195.443C212.159 195.727 212.585 195.869 213.092 195.869Z" fill="white"/>
<path d="M166.787 60.7371H70.764C68.2419 60.7371 66.1977 62.787 66.1977 65.3033C66.1977 67.8196 68.2419 69.8695 70.764 69.8695H166.787C173.19 69.8695 178.407 75.0806 178.407 81.501V140.505C178.407 146.914 173.19 152.125 166.787 152.125H71.2189C64.8158 152.125 59.5989 146.914 59.5989 140.505V81.0461C59.5989 78.5183 57.549 76.4741 55.0212 76.4741C52.5048 76.4741 50.4607 78.5183 50.4607 81.0461V140.505C50.4607 151.958 59.7716 161.263 71.2189 161.263H166.787C178.234 161.263 187.545 151.958 187.545 140.505V81.501C187.545 70.0422 178.234 60.7371 166.787 60.7371ZM151.441 125.608C148.666 125.608 146.42 123.357 146.42 120.599C146.42 118.065 144.37 116.021 141.848 116.021C139.326 116.021 137.282 118.065 137.282 120.599C137.282 126.789 141.313 132.017 146.87 133.929V136.514C146.87 139.036 148.919 141.092 151.441 141.092C153.969 141.092 156.008 139.036 156.008 136.514V133.929C161.57 132.017 165.595 126.789 165.595 120.599C165.595 112.779 159.25 106.428 151.441 106.428C148.666 106.428 146.42 104.177 146.42 101.413C146.42 98.643 148.666 96.3916 151.441 96.3916C154.205 96.3916 156.457 98.643 156.457 101.413C156.457 103.935 158.501 105.985 161.029 105.985C163.551 105.985 165.595 103.935 165.595 101.413C165.595 95.2111 161.57 89.9943 156.008 88.0768V85.4799C156.008 82.9578 153.969 80.9079 151.441 80.9079C148.919 80.9079 146.87 82.9578 146.87 85.4799V88.0768C141.313 89.9943 137.282 95.2111 137.282 101.413C137.282 109.221 143.633 115.566 151.441 115.566C154.205 115.566 156.457 117.818 156.457 120.599C156.457 123.357 154.205 125.608 151.441 125.608ZM73.3033 138.42H119C121.522 138.42 123.566 136.365 123.566 133.848C123.566 131.332 121.522 129.282 119 129.282H73.3033C70.7812 129.282 68.7371 131.332 68.7371 133.848C68.7371 136.365 70.7812 138.42 73.3033 138.42ZM73.3033 92.7236H119C121.522 92.7236 123.566 90.6737 123.566 88.1574C123.566 85.6296 121.522 83.5854 119 83.5854H73.3033C70.7812 83.5854 68.7371 85.6296 68.7371 88.1574C68.7371 90.6737 70.7812 92.7236 73.3033 92.7236ZM73.3033 115.566H119C121.522 115.566 123.566 113.522 123.566 110.994C123.566 108.472 121.522 106.428 119 106.428H73.3033C70.7812 106.428 68.7371 108.472 68.7371 110.994C68.7371 113.522 70.7812 115.566 73.3033 115.566Z" fill="white"/>
</svg>
