<svg width="193" height="180" viewBox="0 0 193 180" fill="none" xmlns="http://www.w3.org/2000/svg">
<path d="M14.098 165.547H10.9872C10.9304 165.144 10.8144 164.787 10.6392 164.474C10.464 164.157 10.2391 163.887 9.96449 163.665C9.68987 163.442 9.37263 163.272 9.01278 163.153C8.65767 163.035 8.27178 162.976 7.85511 162.976C7.10227 162.976 6.4465 163.163 5.88778 163.537C5.32907 163.906 4.89583 164.446 4.58807 165.156C4.2803 165.862 4.12642 166.719 4.12642 167.727C4.12642 168.764 4.2803 169.635 4.58807 170.341C4.90057 171.046 5.33617 171.579 5.89489 171.939C6.4536 172.299 7.09991 172.479 7.83381 172.479C8.24574 172.479 8.62689 172.424 8.97727 172.315C9.33239 172.206 9.64725 172.048 9.92188 171.839C10.1965 171.626 10.4238 171.368 10.6037 171.065C10.7884 170.762 10.9162 170.417 10.9872 170.028L14.098 170.043C14.0175 170.71 13.8163 171.354 13.4943 171.974C13.1771 172.59 12.7486 173.142 12.2088 173.629C11.6738 174.112 11.0346 174.496 10.2912 174.78C9.55256 175.059 8.71686 175.199 7.78409 175.199C6.48674 175.199 5.3267 174.905 4.30398 174.318C3.28598 173.731 2.48106 172.881 1.8892 171.768C1.30208 170.656 1.00852 169.309 1.00852 167.727C1.00852 166.141 1.30682 164.792 1.90341 163.679C2.5 162.566 3.30966 161.719 4.33239 161.136C5.35511 160.549 6.50568 160.256 7.78409 160.256C8.62689 160.256 9.40814 160.374 10.1278 160.611C10.8523 160.848 11.4938 161.193 12.0526 161.648C12.6113 162.098 13.0658 162.649 13.4162 163.303C13.7713 163.956 13.9986 164.704 14.098 165.547ZM21.1754 175.213C20.0722 175.213 19.1181 174.979 18.3132 174.51C17.513 174.036 16.8951 173.378 16.4595 172.536C16.0239 171.688 15.8061 170.705 15.8061 169.588C15.8061 168.461 16.0239 167.476 16.4595 166.634C16.8951 165.786 17.513 165.128 18.3132 164.659C19.1181 164.186 20.0722 163.949 21.1754 163.949C22.2786 163.949 23.2304 164.186 24.0305 164.659C24.8355 165.128 25.4557 165.786 25.8913 166.634C26.3269 167.476 26.5447 168.461 26.5447 169.588C26.5447 170.705 26.3269 171.688 25.8913 172.536C25.4557 173.378 24.8355 174.036 24.0305 174.51C23.2304 174.979 22.2786 175.213 21.1754 175.213ZM21.1896 172.869C21.6915 172.869 22.1106 172.727 22.4467 172.443C22.7829 172.154 23.0362 171.761 23.2067 171.264C23.3819 170.767 23.4695 170.201 23.4695 169.567C23.4695 168.932 23.3819 168.366 23.2067 167.869C23.0362 167.372 22.7829 166.979 22.4467 166.69C22.1106 166.402 21.6915 166.257 21.1896 166.257C20.683 166.257 20.2569 166.402 19.9112 166.69C19.5703 166.979 19.3123 167.372 19.1371 167.869C18.9666 168.366 18.8814 168.932 18.8814 169.567C18.8814 170.201 18.9666 170.767 19.1371 171.264C19.3123 171.761 19.5703 172.154 19.9112 172.443C20.2569 172.727 20.683 172.869 21.1896 172.869ZM31.5376 168.693V175H28.5121V164.091H31.3956V166.016H31.5234C31.7649 165.381 32.1697 164.879 32.7379 164.51C33.3061 164.136 33.995 163.949 34.8047 163.949C35.5623 163.949 36.2228 164.115 36.7862 164.446C37.3497 164.777 37.7876 165.251 38.1001 165.866C38.4126 166.477 38.5689 167.206 38.5689 168.054V175H35.5433V168.594C35.5481 167.926 35.3776 167.405 35.032 167.031C34.6863 166.652 34.2105 166.463 33.6044 166.463C33.1972 166.463 32.8374 166.551 32.5249 166.726C32.2171 166.901 31.9756 167.157 31.8004 167.493C31.63 167.824 31.5424 168.224 31.5376 168.693ZM46.756 164.091V166.364H40.1864V164.091H46.756ZM41.6779 161.477H44.7035V171.648C44.7035 171.927 44.7461 172.145 44.8313 172.301C44.9165 172.453 45.0349 172.559 45.1864 172.621C45.3427 172.682 45.5226 172.713 45.7262 172.713C45.8683 172.713 46.0103 172.701 46.1523 172.678C46.2944 172.649 46.4033 172.628 46.479 172.614L46.9549 174.865C46.8034 174.912 46.5903 174.967 46.3157 175.028C46.0411 175.095 45.7073 175.135 45.3143 175.149C44.5851 175.178 43.9459 175.08 43.3967 174.858C42.8522 174.635 42.4284 174.29 42.1254 173.821C41.8223 173.352 41.6732 172.76 41.6779 172.045V161.477ZM48.7269 175V164.091H51.6602V165.994H51.7738C51.9727 165.317 52.3065 164.806 52.7752 164.46C53.244 164.11 53.7837 163.935 54.3945 163.935C54.546 163.935 54.7094 163.944 54.8846 163.963C55.0598 163.982 55.2137 164.008 55.3462 164.041V166.726C55.2042 166.683 55.0077 166.645 54.7567 166.612C54.5058 166.579 54.2762 166.562 54.0678 166.562C53.6228 166.562 53.225 166.66 52.8746 166.854C52.529 167.043 52.2544 167.308 52.0508 167.649C51.8519 167.99 51.7525 168.383 51.7525 168.828V175H48.7269ZM61.3317 175.213C60.2285 175.213 59.2744 174.979 58.4695 174.51C57.6693 174.036 57.0514 173.378 56.6158 172.536C56.1802 171.688 55.9624 170.705 55.9624 169.588C55.9624 168.461 56.1802 167.476 56.6158 166.634C57.0514 165.786 57.6693 165.128 58.4695 164.659C59.2744 164.186 60.2285 163.949 61.3317 163.949C62.4349 163.949 63.3866 164.186 64.1868 164.659C64.9917 165.128 65.612 165.786 66.0476 166.634C66.4832 167.476 66.701 168.461 66.701 169.588C66.701 170.705 66.4832 171.688 66.0476 172.536C65.612 173.378 64.9917 174.036 64.1868 174.51C63.3866 174.979 62.4349 175.213 61.3317 175.213ZM61.3459 172.869C61.8478 172.869 62.2668 172.727 62.603 172.443C62.9392 172.154 63.1925 171.761 63.3629 171.264C63.5381 170.767 63.6257 170.201 63.6257 169.567C63.6257 168.932 63.5381 168.366 63.3629 167.869C63.1925 167.372 62.9392 166.979 62.603 166.69C62.2668 166.402 61.8478 166.257 61.3459 166.257C60.8393 166.257 60.4131 166.402 60.0675 166.69C59.7266 166.979 59.4685 167.372 59.2933 167.869C59.1229 168.366 59.0376 168.932 59.0376 169.567C59.0376 170.201 59.1229 170.767 59.2933 171.264C59.4685 171.761 59.7266 172.154 60.0675 172.443C60.4131 172.727 60.8393 172.869 61.3459 172.869ZM71.6939 160.455V175H68.6683V160.455H71.6939ZM79.0891 175.213C77.967 175.213 77.0011 174.986 76.1914 174.531C75.3865 174.072 74.7662 173.423 74.3306 172.585C73.895 171.742 73.6772 170.746 73.6772 169.595C73.6772 168.473 73.895 167.488 74.3306 166.641C74.7662 165.793 75.3794 165.133 76.1701 164.659C76.9656 164.186 77.8983 163.949 78.9684 163.949C79.6881 163.949 80.3581 164.065 80.9783 164.297C81.6033 164.524 82.1478 164.867 82.6119 165.327C83.0806 165.786 83.4452 166.364 83.7056 167.06C83.966 167.751 84.0962 168.561 84.0962 169.489V170.32H74.8846V168.445H81.2482C81.2482 168.009 81.1535 167.623 80.9641 167.287C80.7747 166.951 80.512 166.688 80.1758 166.499C79.8443 166.304 79.4585 166.207 79.0181 166.207C78.5588 166.207 78.1516 166.314 77.7965 166.527C77.4461 166.735 77.1715 167.017 76.9727 167.372C76.7738 167.723 76.672 168.113 76.6673 168.544V170.327C76.6673 170.866 76.7667 171.333 76.9656 171.726C77.1692 172.119 77.4556 172.422 77.8249 172.635C78.1942 172.848 78.6322 172.955 79.1388 172.955C79.475 172.955 79.7828 172.907 80.0621 172.812C80.3415 172.718 80.5806 172.576 80.7795 172.386C80.9783 172.197 81.1299 171.965 81.234 171.69L84.0323 171.875C83.8903 172.547 83.5991 173.134 83.1587 173.636C82.7231 174.134 82.1597 174.522 81.4684 174.801C80.7818 175.076 79.9888 175.213 79.0891 175.213ZM90.7564 175V160.455H100.387V162.99H93.8317V166.456H99.7479V168.991H93.8317V175H90.7564ZM102.399 175V164.091H105.424V175H102.399ZM103.919 162.685C103.469 162.685 103.083 162.536 102.761 162.237C102.444 161.934 102.285 161.572 102.285 161.151C102.285 160.734 102.444 160.376 102.761 160.078C103.083 159.775 103.469 159.624 103.919 159.624C104.368 159.624 104.752 159.775 105.069 160.078C105.391 160.376 105.552 160.734 105.552 161.151C105.552 161.572 105.391 161.934 105.069 162.237C104.752 162.536 104.368 162.685 103.919 162.685ZM110.874 168.693V175H107.848V164.091H110.732V166.016H110.859C111.101 165.381 111.506 164.879 112.074 164.51C112.642 164.136 113.331 163.949 114.141 163.949C114.898 163.949 115.559 164.115 116.122 164.446C116.686 164.777 117.124 165.251 117.436 165.866C117.749 166.477 117.905 167.206 117.905 168.054V175H114.879V168.594C114.884 167.926 114.714 167.405 114.368 167.031C114.022 166.652 113.546 166.463 112.94 166.463C112.533 166.463 112.173 166.551 111.861 166.726C111.553 166.901 111.312 167.157 111.136 167.493C110.966 167.824 110.878 168.224 110.874 168.693ZM123.4 175.206C122.704 175.206 122.084 175.085 121.539 174.844C120.995 174.598 120.564 174.235 120.247 173.757C119.934 173.274 119.778 172.673 119.778 171.953C119.778 171.347 119.889 170.838 120.112 170.426C120.334 170.014 120.637 169.683 121.021 169.432C121.404 169.181 121.84 168.991 122.328 168.864C122.82 168.736 123.336 168.646 123.876 168.594C124.511 168.527 125.022 168.466 125.41 168.409C125.798 168.348 126.08 168.258 126.255 168.139C126.431 168.021 126.518 167.846 126.518 167.614V167.571C126.518 167.121 126.376 166.773 126.092 166.527C125.813 166.281 125.415 166.158 124.899 166.158C124.354 166.158 123.921 166.278 123.599 166.52C123.277 166.757 123.064 167.055 122.96 167.415L120.162 167.188C120.304 166.525 120.583 165.952 121 165.469C121.416 164.981 121.954 164.607 122.612 164.347C123.275 164.081 124.042 163.949 124.913 163.949C125.519 163.949 126.099 164.02 126.653 164.162C127.212 164.304 127.707 164.524 128.137 164.822C128.573 165.121 128.916 165.504 129.167 165.973C129.418 166.437 129.544 166.993 129.544 167.642V175H126.674V173.487H126.589C126.414 173.828 126.18 174.129 125.886 174.389C125.592 174.645 125.24 174.846 124.828 174.993C124.416 175.135 123.94 175.206 123.4 175.206ZM124.267 173.118C124.712 173.118 125.105 173.03 125.446 172.855C125.787 172.675 126.054 172.434 126.248 172.131C126.442 171.828 126.539 171.484 126.539 171.101V169.943C126.445 170.005 126.315 170.062 126.149 170.114C125.988 170.161 125.806 170.206 125.602 170.249C125.398 170.286 125.195 170.322 124.991 170.355C124.788 170.384 124.603 170.41 124.437 170.433C124.082 170.485 123.772 170.568 123.507 170.682C123.242 170.795 123.036 170.949 122.889 171.143C122.742 171.333 122.669 171.57 122.669 171.854C122.669 172.266 122.818 172.58 123.116 172.798C123.419 173.011 123.803 173.118 124.267 173.118ZM134.917 168.693V175H131.891V164.091H134.775V166.016H134.902C135.144 165.381 135.549 164.879 136.117 164.51C136.685 164.136 137.374 163.949 138.184 163.949C138.941 163.949 139.602 164.115 140.165 164.446C140.729 164.777 141.167 165.251 141.479 165.866C141.792 166.477 141.948 167.206 141.948 168.054V175H138.922V168.594C138.927 167.926 138.757 167.405 138.411 167.031C138.065 166.652 137.589 166.463 136.983 166.463C136.576 166.463 136.216 166.551 135.904 166.726C135.596 166.901 135.355 167.157 135.179 167.493C135.009 167.824 134.921 168.224 134.917 168.693ZM149.261 175.213C148.144 175.213 147.183 174.976 146.378 174.503C145.578 174.025 144.962 173.362 144.531 172.514C144.105 171.667 143.892 170.691 143.892 169.588C143.892 168.471 144.107 167.491 144.538 166.648C144.974 165.8 145.592 165.14 146.392 164.666C147.192 164.188 148.144 163.949 149.247 163.949C150.199 163.949 151.032 164.122 151.747 164.467C152.462 164.813 153.028 165.298 153.445 165.923C153.861 166.548 154.091 167.282 154.134 168.125H151.278C151.198 167.58 150.985 167.143 150.639 166.811C150.298 166.475 149.851 166.307 149.297 166.307C148.828 166.307 148.419 166.435 148.068 166.69C147.723 166.941 147.453 167.308 147.259 167.791C147.064 168.274 146.967 168.859 146.967 169.545C146.967 170.241 147.062 170.833 147.251 171.321C147.446 171.809 147.718 172.18 148.068 172.436C148.419 172.692 148.828 172.82 149.297 172.82C149.643 172.82 149.953 172.749 150.227 172.607C150.507 172.464 150.736 172.259 150.916 171.989C151.101 171.714 151.222 171.385 151.278 171.001H154.134C154.086 171.835 153.859 172.569 153.452 173.203C153.049 173.833 152.493 174.325 151.783 174.68C151.072 175.036 150.232 175.213 149.261 175.213ZM161.042 175.213C159.92 175.213 158.954 174.986 158.145 174.531C157.34 174.072 156.719 173.423 156.284 172.585C155.848 171.742 155.63 170.746 155.63 169.595C155.63 168.473 155.848 167.488 156.284 166.641C156.719 165.793 157.333 165.133 158.123 164.659C158.919 164.186 159.851 163.949 160.922 163.949C161.641 163.949 162.311 164.065 162.931 164.297C163.556 164.524 164.101 164.867 164.565 165.327C165.034 165.786 165.398 166.364 165.659 167.06C165.919 167.751 166.049 168.561 166.049 169.489V170.32H156.838V168.445H163.201C163.201 168.009 163.107 167.623 162.917 167.287C162.728 166.951 162.465 166.688 162.129 166.499C161.797 166.304 161.412 166.207 160.971 166.207C160.512 166.207 160.105 166.314 159.75 166.527C159.399 166.735 159.125 167.017 158.926 167.372C158.727 167.723 158.625 168.113 158.62 168.544V170.327C158.62 170.866 158.72 171.333 158.919 171.726C159.122 172.119 159.409 172.422 159.778 172.635C160.147 172.848 160.585 172.955 161.092 172.955C161.428 172.955 161.736 172.907 162.015 172.812C162.295 172.718 162.534 172.576 162.733 172.386C162.931 172.197 163.083 171.965 163.187 171.69L165.985 171.875C165.843 172.547 165.552 173.134 165.112 173.636C164.676 174.134 164.113 174.522 163.422 174.801C162.735 175.076 161.942 175.213 161.042 175.213ZM168.024 175V164.091H171.049V175H168.024ZM169.544 162.685C169.094 162.685 168.708 162.536 168.386 162.237C168.069 161.934 167.91 161.572 167.91 161.151C167.91 160.734 168.069 160.376 168.386 160.078C168.708 159.775 169.094 159.624 169.544 159.624C169.993 159.624 170.377 159.775 170.694 160.078C171.016 160.376 171.177 160.734 171.177 161.151C171.177 161.572 171.016 161.934 170.694 162.237C170.377 162.536 169.993 162.685 169.544 162.685ZM173.473 175V164.091H176.406V165.994H176.52C176.719 165.317 177.053 164.806 177.521 164.46C177.99 164.11 178.53 163.935 179.141 163.935C179.292 163.935 179.455 163.944 179.631 163.963C179.806 163.982 179.96 164.008 180.092 164.041V166.726C179.95 166.683 179.754 166.645 179.503 166.612C179.252 166.579 179.022 166.562 178.814 166.562C178.369 166.562 177.971 166.66 177.621 166.854C177.275 167.043 177 167.308 176.797 167.649C176.598 167.99 176.499 168.383 176.499 168.828V175H173.473ZM186.078 175.213C184.975 175.213 184.02 174.979 183.216 174.51C182.415 174.036 181.797 173.378 181.362 172.536C180.926 171.688 180.708 170.705 180.708 169.588C180.708 168.461 180.926 167.476 181.362 166.634C181.797 165.786 182.415 165.128 183.216 164.659C184.02 164.186 184.975 163.949 186.078 163.949C187.181 163.949 188.133 164.186 188.933 164.659C189.738 165.128 190.358 165.786 190.794 166.634C191.229 167.476 191.447 168.461 191.447 169.588C191.447 170.705 191.229 171.688 190.794 172.536C190.358 173.378 189.738 174.036 188.933 174.51C188.133 174.979 187.181 175.213 186.078 175.213ZM186.092 172.869C186.594 172.869 187.013 172.727 187.349 172.443C187.685 172.154 187.939 171.761 188.109 171.264C188.284 170.767 188.372 170.201 188.372 169.567C188.372 168.932 188.284 168.366 188.109 167.869C187.939 167.372 187.685 166.979 187.349 166.69C187.013 166.402 186.594 166.257 186.092 166.257C185.585 166.257 185.159 166.402 184.814 166.69C184.473 166.979 184.215 167.372 184.039 167.869C183.869 168.366 183.784 168.932 183.784 169.567C183.784 170.201 183.869 170.767 184.039 171.264C184.215 171.761 184.473 172.154 184.814 172.443C185.159 172.727 185.585 172.869 186.092 172.869Z" fill="white"/>
<path d="M139.787 27.737H43.7639C41.2419 27.737 39.1977 29.7869 39.1977 32.3032C39.1977 34.8196 41.2419 36.8695 43.7639 36.8695H139.787C146.19 36.8695 151.407 42.0806 151.407 48.5009V107.505C151.407 113.914 146.19 119.125 139.787 119.125H44.2188C37.8157 119.125 32.5989 113.914 32.5989 107.505V48.0461C32.5989 45.5182 30.549 43.4741 28.0211 43.4741C25.5048 43.4741 23.4607 45.5182 23.4607 48.0461V107.505C23.4607 118.958 32.7716 128.263 44.2188 128.263H139.787C151.234 128.263 160.545 118.958 160.545 107.505V48.5009C160.545 37.0422 151.234 27.737 139.787 27.737ZM124.441 92.6084C121.666 92.6084 119.42 90.357 119.42 87.5988C119.42 85.0653 117.37 83.0211 114.848 83.0211C112.326 83.0211 110.282 85.0653 110.282 87.5988C110.282 93.7889 114.313 99.0173 119.869 100.929V103.514C119.869 106.036 121.919 108.092 124.441 108.092C126.969 108.092 129.008 106.036 129.008 103.514V100.929C134.57 99.0173 138.595 93.7889 138.595 87.5988C138.595 79.7793 132.25 73.428 124.441 73.428C121.666 73.428 119.42 71.1766 119.42 68.4127C119.42 65.643 121.666 63.3915 124.441 63.3915C127.205 63.3915 129.457 65.643 129.457 68.4127C129.457 70.9347 131.501 72.9846 134.029 72.9846C136.551 72.9846 138.595 70.9347 138.595 68.4127C138.595 62.2111 134.57 56.9942 129.008 55.0768V52.4798C129.008 49.9578 126.969 47.9079 124.441 47.9079C121.919 47.9079 119.869 49.9578 119.869 52.4798V55.0768C114.313 56.9942 110.282 62.2111 110.282 68.4127C110.282 76.2207 116.633 82.5662 124.441 82.5662C127.205 82.5662 129.457 84.8176 129.457 87.5988C129.457 90.357 127.205 92.6084 124.441 92.6084ZM46.3033 105.42H92C94.5221 105.42 96.5662 103.365 96.5662 100.848C96.5662 98.332 94.5221 96.2821 92 96.2821H46.3033C43.7812 96.2821 41.7371 98.332 41.7371 100.848C41.7371 103.365 43.7812 105.42 46.3033 105.42ZM46.3033 59.7236H92C94.5221 59.7236 96.5662 57.6737 96.5662 55.1574C96.5662 52.6295 94.5221 50.5854 92 50.5854H46.3033C43.7812 50.5854 41.7371 52.6295 41.7371 55.1574C41.7371 57.6737 43.7812 59.7236 46.3033 59.7236ZM46.3033 82.5662H92C94.5221 82.5662 96.5662 80.5221 96.5662 77.9942C96.5662 75.4722 94.5221 73.428 92 73.428H46.3033C43.7812 73.428 41.7371 75.4722 41.7371 77.9942C41.7371 80.5221 43.7812 82.5662 46.3033 82.5662Z" fill="white"/>
</svg>
